HIERARCHY
ROOT Hips
{
	OFFSET 0.000000 0.000000 0.000000
	CHANNELS 6 Xposition Yposition Zposition Zrotation Yrotation Xrotation 
	JOINT LHipJoint
	{
		OFFSET 0.000000 0.000000 0.000000
		CHANNELS 3 Zrotation Yrotation Xrotation
		JOINT LeftUpLeg
		{
			OFFSET 1.363060 -1.794630 0.839290
			CHANNELS 3 Zrotation Yrotation Xrotation
			JOINT LeftLeg
			{
				OFFSET 2.448110 -6.726130 0.000000
				CHANNELS 3 Zrotation Yrotation Xrotation
				JOINT LeftFoot
				{
					OFFSET 2.562200 -7.039590 0.000000
					CHANNELS 3 Zrotation Yrotation Xrotation
					JOINT LeftToeBase
					{
						OFFSET 0.157640 -0.433110 2.322550
						CHANNELS 3 Zrotation Yrotation Xrotation
						End Site
						{
							OFFSET 0.000000 0.000000 0.000000
						}
					}
				}
			}
		}
	}
	JOINT RHipJoint
	{
		OFFSET 0.000000 0.000000 0.000000
		CHANNELS 3 Zrotation Yrotation Xrotation
		JOINT RightUpLeg
		{
			OFFSET -1.305520 -1.794630 0.839290
			CHANNELS 3 Zrotation Yrotation Xrotation
			JOINT RightLeg
			{
				OFFSET -2.542530 -6.985550 0.000000
				CHANNELS 3 Zrotation Yrotation Xrotation
				JOINT RightFoot
				{
					OFFSET -2.568260 -7.056230 0.000000
					CHANNELS 3 Zrotation Yrotation Xrotation
					JOINT RightToeBase
					{
						OFFSET -0.164730 -0.452590 2.363150
						CHANNELS 3 Zrotation Yrotation Xrotation
						End Site
						{
							OFFSET 0.000000 0.000000 0.000000
						}
					}
				}
			}
		}
	}
	JOINT LowerBack
	{
		OFFSET 0.000000 0.000000 0.000000
		CHANNELS 3 Zrotation Yrotation Xrotation
		JOINT Spine
		{
			OFFSET 0.028270 2.035590 -0.193380
			CHANNELS 3 Zrotation Yrotation Xrotation
			JOINT Spine1
			{
				OFFSET 0.056720 2.048850 -0.042750
				CHANNELS 3 Zrotation Yrotation Xrotation
				JOINT Neck
				{
					OFFSET 0.000000 0.000000 0.000000
					CHANNELS 3 Zrotation Yrotation Xrotation
					JOINT Neck1
					{
						OFFSET -0.054170 1.746240 0.172020
						CHANNELS 3 Zrotation Yrotation Xrotation
						JOINT Head
						{
							OFFSET 0.104070 1.761360 -0.123970
							CHANNELS 3 Zrotation Yrotation Xrotation
							End Site
							{
								OFFSET 0.000000 0.000000 0.000000
							}
						}
					}
				}
				JOINT LeftShoulder
				{
					OFFSET 0.000000 0.000000 0.000000
					CHANNELS 3 Zrotation Yrotation Xrotation
					JOINT LeftArm
					{
						OFFSET 3.362410 1.200890 -0.311210
						CHANNELS 3 Zrotation Yrotation Xrotation
						JOINT LeftForeArm
						{
							OFFSET 4.983000 -0.000000 -0.000000
							CHANNELS 3 Zrotation Yrotation Xrotation
							JOINT LeftHand
							{
								OFFSET 3.483560 -0.000000 -0.000000
								CHANNELS 3 Zrotation Yrotation Xrotation
								JOINT LeftFingerBase
								{
									OFFSET 0.000000 0.000000 0.000000
									CHANNELS 3 Zrotation Yrotation Xrotation
									JOINT LeftHandIndex1
									{
										OFFSET 0.715260 -0.000000 -0.000000
										CHANNELS 3 Zrotation Yrotation Xrotation
										End Site
										{
											OFFSET 0.000000 0.000000 0.000000
										}
									}
								}
								JOINT LThumb
								{
									OFFSET 0.000000 0.000000 0.000000
									CHANNELS 3 Zrotation Yrotation Xrotation
									End Site
									{
										OFFSET 0.000000 0.000000 0.000000
									}
								}
							}
						}
					}
				}
				JOINT RightShoulder
				{
					OFFSET 0.000000 0.000000 0.000000
					CHANNELS 3 Zrotation Yrotation Xrotation
					JOINT RightArm
					{
						OFFSET -3.136600 1.374050 -0.404650
						CHANNELS 3 Zrotation Yrotation Xrotation
						JOINT RightForeArm
						{
							OFFSET -5.241900 -0.000000 -0.000000
							CHANNELS 3 Zrotation Yrotation Xrotation
							JOINT RightHand
							{
								OFFSET -3.444170 -0.000000 -0.000000
								CHANNELS 3 Zrotation Yrotation Xrotation
								JOINT RightFingerBase
								{
									OFFSET 0.000000 0.000000 0.000000
									CHANNELS 3 Zrotation Yrotation Xrotation
									JOINT RightHandIndex1
									{
										OFFSET -0.622530 -0.000000 -0.000000
										CHANNELS 3 Zrotation Yrotation Xrotation
										End Site
										{
											OFFSET 0.000000 0.000000 0.000000
										}
									}
								}
								JOINT RThumb
								{
									OFFSET 0.000000 0.000000 0.000000
									CHANNELS 3 Zrotation Yrotation Xrotation
									End Site
									{
										OFFSET 0.000000 0.000000 0.000000
									}
								}
							}
						}
					}
				}
			}
		}
	}
}
MOTION
Frames: 10
Frame Time: 0.033333
1.368723 16.676718 -3.641012 91.102423 -31.219810 -36.622621 -116.690813 -42.837834 66.042153 1.192768 11.544736 -48.058040 -42.766779 61.807831 -37.722924 -9.326260 11.731309 -12.205830 -0.563739 0.112854 -92.116506 25.121511 -13.776090 -109.291401 -148.093691 -79.207050 118.366164 132.524984 -49.180641 -131.546407 3.933978 -0.134453 -19.022332 0.494042 -0.137502 -73.030930 -89.612059 68.199783 -9.168706 -151.632022 76.991296 -152.511131 -172.868045 69.808182 177.960490 -1.596171 11.925714 0.375623 22.985225 8.259555 -7.499888 0.416429 -0.332156 0.389875 86.247989 51.462938 -26.604228 -32.437858 56.651744 -101.449995 -90.515288 45.616243 -154.533233 -13.398091 -14.609215 0.236475 12.328515 46.954469 -11.707869 -0.520607 -0.316819 0.416161 0.403944 0.382819 -0.418543 42.991139 67.332031 68.251881 52.945841 3.593092 -177.554449 30.038090 -41.242506 38.797390 0.927764 10.826775 -17.127841 -9.012918 16.201769 -174.524022 -0.539258 0.435587 -0.465081 -0.359732 -0.496603 -0.269646 
1.273432 16.778227 -2.887594 90.784588 -30.900505 -36.490999 -116.166808 -45.224222 63.780717 1.982380 13.518558 -45.066610 -49.879473 62.548284 -34.913142 -10.999746 19.376108 -10.995278 0.086705 0.438442 -86.769263 25.156157 -11.552969 -110.206030 -142.721505 -78.634783 109.874477 134.112089 -45.702044 -126.071512 3.471378 1.176479 -17.049393 0.576112 -0.221137 -69.292978 -88.548071 68.393759 -9.278034 -148.278323 77.364145 -149.152515 -177.051991 69.314260 172.430123 -1.658039 7.556098 3.653127 19.438734 4.881410 -8.598542 0.373709 -0.398967 0.447591 81.811937 49.414448 -26.610883 -30.894071 67.239329 -101.894383 -96.737514 48.283645 -155.311286 -19.368227 -21.548622 14.355692 7.005928 39.344168 -7.030898 -0.337683 -0.361179 0.403735 0.459692 0.353702 -0.420186 44.687056 67.657070 68.553574 53.247156 7.863123 -177.594052 19.732384 -45.778256 43.876016 5.473492 14.575753 -19.185971 -2.681053 13.903244 -155.468428 -0.367309 0.438572 -0.444687 -0.459616 -0.410806 -0.331763 
1.146430 16.894089 -2.206506 90.452326 -30.299172 -36.017486 -113.789144 -47.997185 60.079507 3.009673 15.836978 -41.148153 -61.699865 63.847885 -33.406287 -5.429560 21.318081 -4.748759 0.890001 0.701300 -79.813684 25.594648 -8.694610 -109.457857 -144.738470 -80.303318 108.524560 132.965774 -41.924331 -118.182464 1.340118 0.272637 -19.288270 0.460188 -0.205646 -64.937627 -87.980816 69.392257 -9.378399 -147.409017 78.040157 -147.547295 179.085392 70.307147 167.976751 -4.308812 7.938612 6.757737 18.219391 -1.065912 -8.018968 0.402565 -0.365680 0.365462 75.719088 48.217823 -26.586283 -28.487624 75.526814 -101.205489 -97.403011 51.912260 -152.902502 -31.860590 -23.279947 24.634985 -1.968888 28.011942 -5.812893 -0.418153 -0.465262 0.425854 0.469676 0.453367 -0.510453 49.554448 68.102466 73.813255 52.280503 13.885392 -179.480833 5.577645 -47.617777 52.461474 2.317978 13.876345 -15.526075 0.057833 13.797645 -148.344973 -0.546814 0.377752 -0.466131 -0.415540 -0.450156 -0.401900 
1.000030 17.005289 -1.601857 90.242253 -30.518626 -35.556151 -109.400527 -50.457648 56.002957 4.733909 18.437163 -39.218295 -72.280912 64.127149 -31.696811 -2.731489 25.957556 -2.499661 1.918513 0.770989 -68.592467 26.586522 -6.422903 -108.254317 -150.510963 -82.668241 111.663599 131.916323 -37.674546 -112.281645 -2.528167 0.017139 -21.683108 0.555193 -0.150080 -58.941568 -87.989396 69.805328 -9.324368 -147.483676 78.383680 -147.186792 174.057993 70.743518 162.567382 -7.169237 3.383415 8.228864 18.207746 1.081681 -0.715506 0.424998 -0.327644 0.340538 71.827128 47.687918 -25.384493 -23.345899 82.984877 -97.490506 -89.950335 57.670921 -145.333472 -43.633609 -21.120784 35.669701 -10.434943 14.267425 1.087121 -0.351128 -0.409272 0.389653 0.443341 0.339626 -0.483758 54.552432 66.903269 78.404314 48.912670 21.318240 178.994453 -10.480198 -47.370403 61.824946 -0.088860 19.068891 -15.350394 19.731641 7.027805 -137.357972 -0.355863 0.536123 -0.439246 -0.471667 -0.339046 -0.354317 
0.861560 17.109755 -1.046405 90.426003 -29.970023 -35.508824 -104.788738 -51.752242 52.325659 5.903483 19.028929 -39.316461 -79.352314 65.532444 -29.628803 5.129844 25.694283 0.515866 3.150799 0.694924 -56.774728 26.869007 -5.293450 -106.769752 179.226190 -86.087685 137.764208 129.822857 -36.126467 -110.074910 -3.906594 0.344315 -24.844383 0.444261 -0.124788 -51.153056 -89.954608 70.418248 -11.017896 -149.823728 79.168246 -148.903077 171.211301 71.408260 159.508623 -10.953551 5.282028 11.444186 20.899212 -3.799418 0.901182 0.382239 -0.321898 0.365123 67.838789 48.182300 -24.331514 -2.024603 88.185071 -75.971820 -72.211104 59.930984 -129.609694 -49.566948 -17.935781 38.071015 -16.505469 -0.045803 -2.229684 -0.375517 -0.375546 0.422415 0.496989 0.443613 -0.436662 63.116487 66.763934 86.410079 45.969375 28.141232 175.650716 -20.752314 -46.221569 68.301239 -7.068459 23.881931 -13.357354 36.026644 1.393861 -128.124522 -0.589850 0.335851 -0.444146 -0.341895 -0.429744 -0.384492 
0.720368 17.207764 -0.509059 90.898162 -30.061819 -35.742523 -100.557062 -52.223039 50.184102 7.308295 20.492604 -41.550681 -83.116185 66.072522 -27.443644 9.436314 25.952279 0.359638 3.532066 0.327452 -44.770754 26.990936 -5.833984 -105.933741 120.387737 -86.512767 -165.664794 127.379534 -34.546553 -108.549248 -6.564251 0.345435 -25.897804 0.821732 -0.184673 -41.236678 -92.697630 70.470722 -12.941571 -148.193439 78.266574 -147.028131 165.320602 71.833717 152.341520 -13.700242 5.330888 11.908918 22.526220 0.223244 5.924017 0.459520 -0.315568 0.351390 64.861039 47.952018 -21.824233 147.869792 86.575518 74.887998 -44.511895 55.207934 -106.627737 -45.999722 -13.727111 41.379975 -22.578195 -10.256508 3.198627 -0.412698 -0.372347 0.463182 0.405182 0.440027 -0.487877 70.084053 66.187871 94.830442 42.277167 35.278612 171.668925 -26.916365 -44.665181 72.674803 -10.801055 26.577650 -8.562337 52.573291 -2.165865 -108.504383 -0.401931 0.487044 -0.413709 -0.520140 -0.421870 -0.359636 
0.581971 17.295210 0.020197 91.099262 -30.322230 -36.424732 -97.250035 -50.332646 50.029583 10.513918 20.431195 -45.510240 -87.812534 68.480660 -32.497479 13.394786 21.017869 -2.100352 3.817383 -0.007362 -33.588562 27.216332 -5.786900 -105.721096 88.459363 -84.836491 -137.297080 126.734220 -34.422576 -107.437970 -8.394885 -0.542048 -25.076583 0.539607 -0.145695 -32.896611 -95.992134 71.257454 -16.632456 -153.938642 77.907634 -153.040481 162.126925 71.909617 148.723823 -16.210217 4.031873 13.291057 23.269095 -2.364833 4.718639 0.445577 -0.421692 0.482903 63.987659 48.753532 -18.537794 155.862103 81.354125 87.938634 -31.560005 42.983956 -97.745024 -40.925701 -7.790858 39.714810 -26.627373 -18.536823 -1.592030 -0.478230 -0.375092 0.326231 0.361670 0.285270 -0.300850 77.343873 66.021622 102.341949 36.500383 42.343320 164.590906 -34.755867 -44.920128 78.829762 -12.328415 30.954016 -2.296888 62.976149 -14.386521 -93.672034 -0.475783 0.444084 -0.368487 -0.303024 -0.408129 -0.447802 
0.456591 17.364273 0.541701 91.619002 -30.768101 -36.861027 -95.575668 -49.378025 50.580224 13.173738 21.622194 -48.754293 -88.187393 69.443108 -35.279625 18.765838 15.243894 -5.806452 3.371604 -0.264156 -25.930322 28.249216 -6.458678 -106.401223 66.727544 -83.025967 -116.882420 125.964729 -34.416784 -108.393629 -11.641259 -1.831337 -24.698571 0.407701 -0.030495 -24.084328 -99.127564 71.476872 -18.635334 -152.433332 77.030871 -151.687106 157.823397 71.055191 144.122530 -17.116024 6.410425 14.297431 22.893497 1.081390 3.673280 0.437463 -0.403594 0.299581 63.393464 48.575209 -13.918546 160.359744 76.628593 98.800978 -23.233182 31.163915 -94.021263 -31.547677 -5.849407 34.657141 -27.008506 -28.004121 -4.024969 -0.431242 -0.339679 0.444993 0.423741 0.486334 -0.417083 83.805004 66.315136 111.151286 28.368445 48.804959 153.352919 -44.607006 -45.814616 89.356826 -15.941056 33.382092 0.489653 64.977603 -22.086773 -72.331368 -0.423087 0.352287 -0.377929 -0.531593 -0.420413 -0.334718 
0.354431 17.408058 1.059741 92.156288 -31.245196 -37.226867 -96.351229 -47.769631 54.451602 16.054950 23.424281 -53.690975 -81.376384 70.256463 -35.614503 24.440968 8.589608 -9.707379 3.304518 -0.365687 -21.479040 29.522901 -6.920758 -108.155065 49.957101 -81.494722 -101.385921 126.847835 -35.436809 -112.171846 -8.819078 -1.348182 -24.057550 0.464411 -0.058919 -18.405420 -101.814833 71.564904 -21.019552 -157.299388 76.488742 -156.805184 158.449880 70.696292 144.527572 -17.543271 4.980828 14.384493 21.603966 5.234723 3.502736 0.374430 -0.336826 0.492529 63.692365 49.180502 -10.696157 148.737612 73.024888 94.160255 -26.501819 29.058344 -99.593093 -30.547973 -6.878969 36.654194 -23.409356 -36.749411 -16.580103 -0.397330 -0.427875 0.337356 0.448081 0.279404 -0.353699 88.919316 65.826781 116.865713 18.414399 54.483919 140.756623 -54.578326 -48.293105 101.223015 -18.530634 37.276358 4.181304 59.591634 -32.614274 -45.715357 -0.398679 0.437564 -0.302364 -0.256956 -0.362592 -0.462517 
0.275165 17.420050 1.583463 93.220469 -31.872038 -37.410130 -97.730794 -47.086754 56.398937 18.651797 24.500189 -55.333052 -74.963441 70.881713 -39.844565 32.944565 3.039225 -15.039187 2.872458 -0.316712 -21.204183 30.599142 -7.846660 -109.668900 41.862317 -78.595742 -94.108014 124.686899 -38.533092 -117.277278 -7.307373 -2.723156 -23.313033 0.529893 -0.021185 -14.888543 -103.097192 70.594774 -20.949180 -159.800893 74.708164 -159.094423 158.361285 71.145410 144.764201 -15.067734 8.639373 14.559130 15.886663 5.321686 1.101509 0.389056 -0.510514 0.298311 67.009001 51.137242 -4.859005 133.934466 71.190362 88.487012 -31.996600 30.447993 -107.244391 -26.667219 -11.750684 38.875314 -14.852503 -38.846841 -33.663698 -0.477585 -0.362073 0.368122 0.289462 0.401239 -0.412313 94.915294 65.823966 123.717780 8.602684 57.605156 124.882511 -67.464893 -47.427931 117.104159 -24.007216 37.202873 8.460502 60.165835 -31.915852 -26.602991 -0.454321 0.333427 -0.414043 -0.480397 -0.410401 -0.236588 
